HIERARCHY
ROOT root
{
	OFFSET 0.000000 0.000000 0.000000
	CHANNELS 6 Xposition Yposition Zposition Zrotation Yrotation Xrotation
	JOINT lhip
	{
		OFFSET 0.058581 -0.082280 -0.017664
		CHANNELS 3 Zrotation Yrotation Xrotation
		JOINT lknee
		{
			OFFSET 0.043451 -0.386469 0.008037
			CHANNELS 3 Zrotation Yrotation Xrotation
			JOINT lankle
			{
				OFFSET -0.014790 -0.426874 -0.037428
				CHANNELS 3 Zrotation Yrotation Xrotation
				JOINT ltoe
				{
					OFFSET 0.041054 -0.060286 0.122042
					CHANNELS 3 Zrotation Yrotation Xrotation
					End Site
					{
						OFFSET 0.000000 0.000000 0.000000
					}
				}
			}
		}
	}
	JOINT rhip
	{
		OFFSET -0.060310 -0.090513 -0.013543
		CHANNELS 3 Zrotation Yrotation Xrotation
		JOINT rknee
		{
			OFFSET -0.043257 -0.383688 -0.004843
			CHANNELS 3 Zrotation Yrotation Xrotation
			JOINT rankle
			{
				OFFSET 0.019056 -0.420046 -0.034562
				CHANNELS 3 Zrotation Yrotation Xrotation
				JOINT rtoe
				{
					OFFSET -0.034840 -0.062106 0.130323
					CHANNELS 3 Zrotation Yrotation Xrotation
					End Site
					{
						OFFSET 0.000000 0.000000 0.000000
					}
				}
			}
		}
	}
	JOINT lowerback
	{
		OFFSET 0.004439 0.124404 -0.038385
		CHANNELS 3 Zrotation Yrotation Xrotation
		JOINT upperback
		{
			OFFSET 0.004488 0.137956 0.026820
			CHANNELS 3 Zrotation Yrotation Xrotation
			JOINT chest
			{
				OFFSET -0.002265 0.056032 0.002855
				CHANNELS 3 Zrotation Yrotation Xrotation
				JOINT lowerneck
				{
					OFFSET -0.013390 0.211636 -0.033468
					CHANNELS 3 Zrotation Yrotation Xrotation
					JOINT upperneck
					{
						OFFSET 0.010113 0.088937 0.050410
						CHANNELS 3 Zrotation Yrotation Xrotation
						End Site
						{
							OFFSET 0.000000 0.000000 0.000000
						}
					}
				}
				JOINT lclavicle
				{
					OFFSET 0.071702 0.114000 -0.018898
					CHANNELS 3 Zrotation Yrotation Xrotation
					JOINT lshoulder
					{
						OFFSET 0.122921 0.045205 -0.019046
						CHANNELS 3 Zrotation Yrotation Xrotation
						JOINT lelbow
						{
							OFFSET 0.255332 -0.015649 -0.022946
							CHANNELS 3 Zrotation Yrotation Xrotation
							JOINT lwrist
							{
								OFFSET 0.265709 0.012698 -0.007375
								CHANNELS 3 Zrotation Yrotation Xrotation
								End Site
								{
									OFFSET 0.000000 0.000000 0.000000
								}
							}
						}
					}
				}
				JOINT rclavicle
				{
					OFFSET -0.082954 0.112472 -0.023707
					CHANNELS 3 Zrotation Yrotation Xrotation
					JOINT rshoulder
					{
						OFFSET -0.113228 0.046853 -0.008472
						CHANNELS 3 Zrotation Yrotation Xrotation
						JOINT relbow
						{
							OFFSET -0.260127 -0.014369 -0.031269
							CHANNELS 3 Zrotation Yrotation Xrotation
							JOINT rwrist
							{
								OFFSET -0.269108 0.006794 -0.006027
								CHANNELS 3 Zrotation Yrotation Xrotation
								End Site
								{
									OFFSET 0.000000 0.000000 0.000000
								}
							}
						}
					}
				}
			}
		}
	}
}
MOTION
Frames: 11
Frame Time: 0.033333
1.147388 1.984455 1.030248 -91.260540 -1.232454 85.153864 -4.219661 0.486736 2.268954 -2.842768 -7.163279 7.987315 3.490430 8.450390 -11.387629 0.000000 -0.000000 0.000000 -1.175832 -3.193860 4.507971 1.657040 -1.149036 14.124385 3.877023 -2.933606 -16.338956 0.000000 -0.000000 0.000000 3.729291 2.234379 14.025332 0.170751 1.154217 0.067201 -1.117503 1.428717 2.212480 0.752008 3.180711 7.734980 -4.248112 -0.222274 16.189544 -28.284060 4.673868 2.489799 -58.798722 -3.686461 9.690482 7.736343 -26.592497 6.926933 -4.950562 -4.414170 -4.229469 27.150458 3.513549 3.614823 54.042837 9.557674 11.261359 -16.448818 23.172249 -11.965094 3.695217 4.451780 -6.683269 
1.141813 1.981134 1.028453 -90.901563 -1.183774 85.203543 -4.552039 0.217402 2.505852 -2.868903 -7.631222 8.137638 3.723166 8.563085 -12.843494 0.000000 -0.000000 0.000000 -1.316542 -3.068907 4.139817 1.703587 -1.561825 15.553073 4.368871 -2.966125 -17.387013 0.000000 -0.000000 0.000000 3.695818 2.396533 13.696349 0.259771 1.117104 0.208570 -1.149293 1.534342 2.216199 0.485921 3.357486 8.266470 -4.227730 -0.320017 15.870789 -28.119838 4.139641 2.783548 -59.046643 -3.801571 9.682407 8.088011 -28.026431 6.484850 -4.474459 -4.154190 -4.460501 27.440562 3.810634 4.321293 54.692782 9.211224 11.208097 -17.267126 24.229870 -11.677138 3.498939 4.442156 -6.527304 
1.134953 1.977100 1.026263 -90.234983 -1.231335 84.935233 -5.066359 -0.055101 3.375261 -2.773160 -8.714669 8.038346 4.022402 8.653967 -13.073394 0.000000 -0.000000 0.000000 -1.430502 -2.782252 3.259333 1.336822 -2.481975 18.589568 4.193103 -3.413573 -18.446337 0.000000 -0.000000 0.000000 3.406668 2.213544 13.993244 0.347683 1.253888 0.002287 -1.069046 1.429847 2.357927 0.626202 3.401361 7.880073 -4.466356 -0.677752 16.180521 -27.914076 4.300445 2.780608 -59.137158 -4.191057 9.837335 8.286294 -29.587555 6.091609 -4.445051 -4.062227 -4.568239 27.720695 3.660183 4.013925 55.266872 8.807916 11.402246 -17.774913 24.365005 -12.040246 4.169054 4.618706 -6.205534 
1.128785 1.973553 1.023651 -89.587724 -1.318095 84.741177 -5.176911 0.177587 4.177664 -3.076731 -9.681903 7.730840 4.698082 8.465750 -13.933553 0.000000 -0.000000 0.000000 -1.638714 -2.583460 0.959200 0.914259 -3.272905 24.091467 4.370761 -4.054505 -18.904624 0.000000 -0.000000 0.000000 2.891205 1.778979 14.485342 0.471136 1.457229 -0.392292 -0.965095 1.287956 2.556749 0.931277 3.695956 7.544087 -4.748023 -0.551516 16.362248 -27.767469 4.454632 2.496909 -59.013717 -4.389679 9.851487 8.183690 -30.943631 6.328693 -3.550025 -3.864789 -5.099511 28.207350 3.212147 3.644211 55.369634 8.702066 11.430650 -17.866067 24.783653 -12.476291 3.732970 4.326191 -6.112400 
1.122712 1.970215 1.021780 -88.901475 -1.492122 84.284094 -5.267597 0.501823 5.254989 -3.467880 -10.605223 7.366169 5.144442 8.470677 -14.285873 0.000000 -0.000000 0.000000 -2.156441 -1.835777 -2.467444 0.359209 -4.561812 32.121481 5.639398 -4.267988 -17.266298 0.000000 -0.000000 0.000000 1.986754 1.051524 15.310831 0.731394 1.673416 -0.671758 -0.895368 1.143344 2.542205 1.348005 3.963585 7.425378 -4.892633 -0.482907 16.763451 -27.544233 4.149216 2.781512 -58.705147 -4.865246 10.008652 8.356680 -31.744412 5.863682 -3.481533 -3.987586 -5.286054 28.489737 3.503384 3.508934 55.514149 8.577421 11.543211 -18.045042 24.051528 -13.703459 4.107446 4.418918 -6.870332 
1.116202 1.966663 1.020827 -88.061831 -1.322813 83.728296 -5.264990 0.643561 6.516716 -3.487395 -11.913304 6.946385 5.864558 8.760854 -14.895111 0.000000 -0.000000 0.000000 -2.818125 -1.336226 -7.004900 -0.076837 -5.672343 41.607977 7.910194 -4.371090 -12.355155 0.000000 -0.000000 0.000000 1.622513 -0.096242 16.412461 0.946729 1.843659 -1.003673 -0.971004 0.916655 2.520085 1.493357 3.963494 7.207652 -5.171877 -0.135625 16.882817 -27.512475 4.040074 2.610469 -58.319997 -5.354538 10.076433 8.493817 -31.731723 5.605474 -3.583637 -4.139875 -5.054626 28.737551 3.523009 3.293103 55.483146 8.991373 11.729265 -17.737737 22.736686 -14.587724 3.873376 4.289054 -6.528459 
1.109028 1.963917 1.020451 -86.704036 -0.971472 83.403802 -5.061076 0.266769 7.508363 -3.549454 -12.815411 6.663044 6.709357 9.482560 -14.906867 0.000000 -0.000000 0.000000 -3.328346 -0.522284 -11.790351 -0.106166 -6.697739 49.786430 8.917653 -5.599935 -9.079392 0.000000 -0.000000 0.000000 1.153696 -1.442354 17.152275 1.394904 1.790598 -1.059905 -0.930268 0.576318 2.466651 1.566726 4.098137 7.086838 -5.419688 0.399505 16.792819 -27.403976 3.944898 2.592251 -57.961499 -5.839467 10.167261 8.722748 -31.627354 5.207509 -4.220493 -4.008746 -5.221101 28.814112 3.510724 3.068040 55.472051 9.020473 12.012249 -17.451741 21.935732 -15.084987 4.445855 4.146170 -6.483892 
1.101172 1.962169 1.020348 -85.542841 -0.484285 83.184825 -4.624071 0.479635 8.295875 -3.529325 -14.512646 6.557740 7.139782 9.421170 -14.681016 0.000000 -0.000000 0.000000 -3.700986 -0.084582 -16.051128 0.568966 -7.428673 54.640728 7.931912 -5.491422 -10.506862 0.000000 -0.000000 0.000000 0.922710 -2.468005 17.876452 1.715911 1.769182 -1.107976 -0.823166 0.083780 2.537653 1.914833 4.690669 6.479496 -5.799238 -0.037981 16.898074 -27.294598 3.453427 2.515185 -57.612205 -6.166281 10.264580 9.179151 -31.233151 4.537107 -3.623249 -3.948040 -5.505638 29.366960 3.567020 3.048632 55.034194 9.080812 11.837755 -17.330121 21.325160 -15.369218 4.096394 3.925869 -6.698723 
1.091750 1.961298 1.020623 -84.571398 0.028776 83.114313 -4.049456 0.873135 9.079652 -3.318700 -15.630295 6.350047 6.855642 9.394677 -15.126286 0.000000 -0.000000 0.000000 -4.117300 -0.123825 -19.320251 0.542987 -8.696583 55.353677 7.695689 -6.298616 -11.382183 0.000000 -0.000000 0.000000 0.834332 -3.262228 18.253843 1.948396 1.608074 -1.024639 -0.678501 -0.288122 2.724942 2.156550 5.151769 6.097114 -6.053981 -0.138454 17.337289 -27.167561 3.329458 2.439756 -57.180376 -6.665855 10.282794 9.157957 -30.793774 4.376330 -3.557519 -3.739064 -5.495502 29.833286 3.382190 2.777735 54.534609 8.830811 11.992381 -17.028415 21.003143 -15.617024 3.983807 3.880891 -6.708379 
1.081846 1.960607 1.021741 -83.582866 0.798289 83.118586 -3.097866 0.938996 9.939844 -3.122648 -16.462849 5.985778 6.380425 9.205300 -15.348491 0.000000 -0.000000 0.000000 -4.274994 -0.143644 -21.622161 0.064996 -10.855357 52.380472 6.988966 -7.853583 -11.984028 0.000000 -0.000000 0.000000 0.998768 -4.212635 18.839889 2.105477 1.562742 -1.211887 -0.343163 -0.542486 2.875356 2.001400 5.424932 5.862564 -5.994192 -0.080873 17.265260 -27.198758 3.290664 2.456409 -56.977770 -7.112456 10.152226 9.528455 -30.210982 3.902755 -3.128433 -3.808396 -5.457960 29.912999 3.136773 2.808290 54.377838 8.576024 11.897194 -16.882823 20.670926 -15.538574 3.671727 3.704102 -6.767414 
1.069973 1.960264 1.021746 -83.058826 1.266769 83.190873 -2.318364 1.224252 10.975261 -3.007175 -16.798489 5.407058 5.780928 8.609943 -15.736242 0.000000 -0.000000 0.000000 -4.270732 -0.194310 -22.939425 -0.491620 -12.434274 46.714867 6.970609 -8.965473 -12.220935 0.000000 -0.000000 0.000000 0.939547 -4.766826 19.301257 2.105569 1.504441 -1.349231 -0.023547 -0.752633 3.056890 1.942787 5.543895 5.700632 -5.799508 -0.069990 16.917802 -27.009486 3.762343 2.490030 -56.939275 -7.528274 9.924696 9.712356 -30.019712 3.561658 -3.470464 -4.403347 -6.090576 29.898313 2.740970 2.772940 54.536072 8.484015 11.930994 -16.724993 20.133545 -15.428130 3.740574 3.804324 -6.768779 
